<svg width="1441" height="1171" viewBox="0 0 1441 1171" fill="none" xmlns="http://www.w3.org/2000/svg">
<mask id="mask0_109_1074" style="mask-type:luminance" maskUnits="userSpaceOnUse" x="-550" y="-419" width="2379" height="1590">
<path d="M1829 -418H-550V1170.48H1829V-418Z" fill="white"/>
</mask>
<g mask="url(#mask0_109_1074)">
<g opacity="0.3">
<path d="M1959 1254.56H1652.7C1639.31 1254.52 1626.47 1249.18 1617 1239.71C1607.53 1230.24 1602.19 1217.41 1602.15 1204.01V909.609C1602.11 896.214 1596.77 883.38 1587.3 873.908C1577.83 864.437 1564.99 859.097 1551.6 859.055H1016.32C1002.93 859.013 990.092 853.674 980.62 844.202C971.149 834.731 965.809 821.896 965.767 808.501V543.838C965.809 530.443 971.149 517.609 980.62 508.137C990.092 498.665 1002.93 493.326 1016.32 493.284H1231.42C1244.82 493.326 1257.65 498.665 1267.12 508.137C1276.59 517.609 1281.93 530.443 1281.98 543.838V644.945C1281.93 658.34 1276.59 671.174 1267.12 680.646C1257.65 690.118 1244.82 695.457 1231.42 695.499H689.209C675.812 695.536 662.975 700.874 653.502 710.346C644.03 719.819 638.692 732.656 638.655 746.053V1088.03C638.618 1101.43 633.28 1114.27 623.808 1123.74C614.335 1133.21 601.498 1138.55 588.101 1138.59H424.505C411.117 1138.54 398.293 1133.19 388.83 1123.72C379.367 1114.25 374.033 1101.42 373.991 1088.03V942.32C373.955 928.924 368.617 916.087 359.144 906.614C349.671 897.141 336.834 891.803 323.437 891.766H153.934C140.539 891.808 127.705 897.148 118.233 906.619C108.761 916.091 103.422 928.925 103.38 942.32V1450.83C103.343 1464.23 98.0053 1477.07 88.5326 1486.54C79.0599 1496.01 66.2226 1501.35 52.8262 1501.39H-140.468C-153.864 1501.35 -166.701 1496.01 -176.174 1486.54C-185.647 1477.07 -190.985 1464.23 -191.021 1450.83V472.468C-191.058 459.071 -196.396 446.234 -205.869 436.761C-215.341 427.289 -228.179 421.951 -241.575 421.914H-420" stroke="url(#paint0_linear_109_1074)" stroke-width="3" stroke-linecap="round" stroke-linejoin="round"/>
<path d="M1326.44 -813.272V-611.057C1326.48 -597.662 1331.82 -584.828 1341.29 -575.356C1350.76 -565.884 1363.59 -560.545 1376.99 -560.503H1507.83C1521.23 -560.461 1534.06 -555.121 1543.54 -545.65C1553.01 -536.178 1558.35 -523.344 1558.39 -509.949V-159.047C1558.35 -145.652 1553.01 -132.818 1543.54 -123.346C1534.06 -113.874 1521.23 -108.535 1507.83 -108.493H826.846C813.451 -108.535 800.617 -113.874 791.145 -123.346C781.674 -132.818 776.334 -145.652 776.292 -159.047V-432.632C776.334 -446.026 781.674 -458.861 791.145 -468.332C800.617 -477.804 813.451 -483.144 826.846 -483.185H1116.79C1130.18 -483.144 1143.02 -477.804 1152.49 -468.332C1161.96 -458.861 1167.3 -446.026 1167.34 -432.632V298.911C1167.38 312.306 1172.72 325.14 1182.19 334.612C1191.66 344.083 1204.5 349.423 1217.89 349.465H1272.91C1286.3 349.506 1299.14 354.846 1308.61 364.318C1318.08 373.789 1323.42 386.624 1323.46 400.018V965.031C1323.42 978.426 1318.08 991.26 1308.61 1000.73C1299.14 1010.2 1286.3 1015.54 1272.91 1015.58H1067.72C1054.32 1015.63 1041.49 1020.97 1032.02 1030.44C1022.55 1039.91 1017.21 1052.74 1017.17 1066.14V1565.73" stroke="url(#paint1_linear_109_1074)" stroke-width="3" stroke-linecap="round" stroke-linejoin="round"/>
<path d="M-550 682.524H-172.334C-158.937 682.487 -146.1 677.149 -136.627 667.677C-127.155 658.204 -121.817 645.367 -121.78 631.97V-75.7823C-121.817 -89.1787 -127.155 -102.016 -136.627 -111.489C-146.1 -120.961 -158.937 -126.299 -172.334 -126.336H-341.838C-355.234 -126.299 -368.071 -120.961 -377.544 -111.489C-387.017 -102.016 -392.355 -89.1787 -392.391 -75.7823V117.511C-392.355 130.908 -387.017 143.745 -377.544 153.218C-368.071 162.691 -355.234 168.029 -341.838 168.065H12.0387C25.4351 168.029 38.2724 162.691 47.7451 153.218C57.2178 143.745 62.5558 130.908 62.5924 117.511V-447.501C62.629 -460.897 67.967 -473.735 77.4398 -483.208C86.9125 -492.68 99.7497 -498.018 113.146 -498.055H318.335C331.731 -498.018 344.569 -492.68 354.041 -483.208C363.514 -473.735 368.852 -460.897 368.889 -447.501V-337.472C368.925 -324.076 374.263 -311.239 383.736 -301.766C393.209 -292.293 406.046 -286.955 419.442 -286.919H924.98C938.375 -286.877 951.209 -281.537 960.681 -272.065C970.152 -262.594 975.492 -249.76 975.534 -236.365V41.6808C975.575 55.0756 980.915 67.9099 990.387 77.3815C999.858 86.8531 1012.69 92.1927 1026.09 92.2346H1829" stroke="url(#paint2_linear_109_1074)" stroke-width="3" stroke-linecap="round" stroke-linejoin="round"/>
<path d="M1704.14 376H1594.11C1580.71 376.042 1567.88 381.381 1558.41 390.853C1548.94 400.325 1543.6 413.159 1543.56 426.554V1083.75C1543.51 1097.15 1538.17 1109.98 1528.7 1119.45C1519.23 1128.92 1506.4 1134.26 1493 1134.31H1165.89C1152.49 1134.26 1139.66 1128.92 1130.19 1119.45C1120.72 1109.98 1115.38 1097.15 1115.34 1083.75V1012.38C1115.29 998.988 1109.95 986.153 1100.48 976.682C1091.01 967.21 1078.18 961.87 1064.78 961.829H597.903C584.508 961.87 571.673 967.21 562.202 976.682C552.73 986.153 547.391 998.988 547.349 1012.38V1113.49C547.391 1126.88 552.73 1139.72 562.202 1149.19C571.673 1158.66 584.508 1164 597.903 1164.04H693.063C706.457 1164 719.292 1158.66 728.763 1149.19C738.235 1139.72 743.574 1126.88 743.616 1113.49V786.377C743.574 772.983 738.235 760.148 728.763 750.677C719.292 741.205 706.457 735.865 693.063 735.824H297.554C284.157 735.86 271.32 741.198 261.847 750.671C252.375 760.144 247.037 772.981 247 786.377V1327.6" stroke="url(#paint3_linear_109_1074)" stroke-width="3" stroke-linecap="round" stroke-linejoin="round"/>
<path d="M145.857 -813.272V275.121C145.894 288.517 151.232 301.355 160.705 310.827C170.178 320.3 183.015 325.638 196.411 325.675H484.865C498.261 325.638 511.099 320.3 520.571 310.827C530.044 301.355 535.382 288.517 535.419 275.121V69.9322C535.382 56.5357 530.044 43.6985 520.571 34.2258C511.099 24.753 498.261 19.415 484.865 19.3784H-216.94C-230.336 19.3418 -243.174 14.0038 -252.646 4.53109C-262.119 -4.94165 -267.457 -17.7789 -267.494 -31.1753V-447.5C-267.53 -460.897 -272.868 -473.734 -282.341 -483.207C-291.814 -492.68 -304.651 -498.017 -318.048 -498.054H-550" stroke="url(#paint4_linear_109_1074)" stroke-width="3" stroke-linecap="round" stroke-linejoin="round"/>
<path d="M1829 281.068H1449.23C1436.39 281.031 1424.09 275.915 1415.01 266.836C1405.93 257.758 1400.82 245.455 1400.78 232.616V-211.702C1400.82 -224.541 1405.93 -236.844 1415.01 -245.923C1424.09 -255.001 1436.39 -260.118 1449.23 -260.154H1829" stroke="url(#paint5_linear_109_1074)" stroke-width="3" stroke-linecap="round" stroke-linejoin="round"/>
</g>
<path d="M-328.835 1595.73V1289.43C-328.798 1276.04 -323.46 1263.2 -313.988 1253.73C-304.515 1244.25 -291.678 1238.91 -278.281 1238.88H16.12C29.5164 1238.84 42.3536 1233.5 51.8264 1224.03C61.2991 1214.56 66.6371 1201.72 66.6737 1188.32V653.05C66.7103 639.653 72.0483 626.816 81.521 617.343C90.9938 607.87 103.831 602.532 117.227 602.496H381.891C395.288 602.532 408.125 607.87 417.598 617.343C427.07 626.816 432.408 639.653 432.445 653.05V868.151C432.408 881.547 427.07 894.385 417.598 903.857C408.125 913.33 395.288 918.668 381.891 918.705H280.784C267.387 918.668 254.55 913.33 245.077 903.857C235.605 894.385 230.267 881.547 230.23 868.151V325.937C230.193 312.541 224.855 299.703 215.383 290.231C205.91 280.758 193.073 275.42 179.676 275.383H-162.305C-175.701 275.347 -188.539 270.009 -198.011 260.536C-207.484 251.063 -212.822 238.226 -212.859 224.83V61.2337C-212.812 47.8442 -207.469 35.017 -197.998 25.5529C-188.526 16.0887 -175.695 10.7562 -162.305 10.7196H-16.5913C-3.19486 10.683 9.64239 5.34503 19.1151 -4.12771C28.5879 -13.6004 33.9258 -26.4377 33.9625 -39.8341V-209.338C33.9258 -222.734 28.5879 -235.572 19.1151 -245.044C9.64239 -254.517 -3.19486 -259.855 -16.5913 -259.892H-525.103C-538.499 -259.928 -551.336 -265.266 -560.809 -274.739C-570.282 -284.212 -575.62 -297.049 -575.656 -310.445V-503.739C-575.62 -517.136 -570.282 -529.973 -560.809 -539.446C-551.336 -548.918 -538.499 -554.256 -525.103 -554.293H453.261C466.658 -554.329 479.495 -559.667 488.968 -569.14C498.44 -578.613 503.778 -591.45 503.815 -604.847V-783.272" stroke="url(#paint6_linear_109_1074)" stroke-width="3" stroke-linecap="round" stroke-linejoin="round"/>
<path d="M401.6 1565.73V1455.7C401.563 1442.3 396.225 1429.47 386.753 1419.99C377.28 1410.52 364.443 1405.18 351.046 1405.15H-306.153C-319.549 1405.11 -332.386 1399.77 -341.859 1390.3C-351.332 1380.83 -356.67 1367.99 -356.706 1354.59V1027.48C-356.67 1014.08 -351.332 1001.25 -341.859 991.774C-332.386 982.301 -319.549 976.963 -306.153 976.927H-234.783C-221.386 976.89 -208.549 971.552 -199.076 962.079C-189.603 952.607 -184.265 939.769 -184.229 926.373V459.494C-184.265 446.098 -189.603 433.261 -199.076 423.788C-208.549 414.315 -221.386 408.977 -234.783 408.94H-335.89C-349.286 408.977 -362.124 414.315 -371.597 423.788C-381.069 433.261 -386.407 446.098 -386.444 459.494V554.654C-386.407 568.051 -381.069 580.888 -371.597 590.361C-362.124 599.833 -349.286 605.171 -335.89 605.208H-8.77754C4.61889 605.171 17.4561 599.833 26.9289 590.361C36.4016 580.888 41.7396 568.051 41.7762 554.654V159.145C41.7396 145.749 36.4016 132.912 26.9289 123.439C17.4561 113.966 4.61889 108.628 -8.77754 108.592H-550" stroke="url(#paint7_linear_109_1074)" stroke-width="3" stroke-linecap="round" stroke-linejoin="round"/>
<path d="M1829 -227.414H740.608C727.213 -227.372 714.379 -222.033 704.907 -212.561C695.435 -203.089 690.096 -190.255 690.054 -176.86V111.593C690.096 124.988 695.435 137.823 704.907 147.294C714.379 156.766 727.213 162.105 740.608 162.147H945.796C959.191 162.105 972.026 156.766 981.497 147.294C990.969 137.823 996.308 124.988 996.35 111.593V-590.212C996.387 -603.608 1001.72 -616.445 1011.2 -625.918C1020.67 -635.391 1033.51 -640.729 1046.9 -640.765H1463.23C1476.63 -640.802 1489.46 -646.14 1498.94 -655.613C1508.41 -665.085 1513.75 -677.923 1513.78 -691.319V-923.272" stroke="url(#paint8_linear_109_1074)" stroke-width="3" stroke-linecap="round" stroke-linejoin="round"/>
<path d="M-255.599 -813.272V-200.679C-255.562 -187.283 -250.224 -174.445 -240.751 -164.973C-231.279 -155.5 -218.441 -150.162 -205.045 -150.125H455.128C468.524 -150.089 481.361 -144.751 490.834 -135.278C500.307 -125.805 505.645 -112.968 505.681 -99.5716V343.517C505.718 356.914 511.056 369.751 520.529 379.224C530.001 388.696 542.839 394.034 556.235 394.071H1463.23C1476.62 394.029 1489.46 388.69 1498.93 379.218C1508.4 369.746 1513.74 356.912 1513.78 343.517V248.357C1513.82 234.962 1519.16 222.128 1528.64 212.656C1538.11 203.185 1550.94 197.845 1564.34 197.803H1829" stroke="url(#paint9_linear_109_1074)" stroke-width="3" stroke-linecap="round" stroke-linejoin="round"/>
<path d="M977.341 45.8216C987.195 45.8216 995.183 37.8332 995.183 27.9791C995.183 18.125 987.195 10.1366 977.341 10.1366C967.486 10.1366 959.498 18.125 959.498 27.9791C959.498 37.8332 967.486 45.8216 977.341 45.8216Z" fill="#9DC6FF"/>
<path d="M43.263 478.327C53.1172 478.327 61.1055 470.339 61.1055 460.485C61.1055 450.631 53.1172 442.642 43.263 442.642C33.4089 442.642 25.4205 450.631 25.4205 460.485C25.4205 470.339 33.4089 478.327 43.263 478.327Z" fill="#9DC6FF"/>
<path d="M165.682 771.241C175.537 771.241 183.525 763.253 183.525 753.399C183.525 743.545 175.537 735.556 165.682 735.556C155.828 735.556 147.84 743.545 147.84 753.399C147.84 763.253 155.828 771.241 165.682 771.241Z" fill="#E7E7E7"/>
<path d="M1283.84 370.685C1293.7 370.685 1301.69 362.697 1301.69 352.842C1301.69 342.988 1293.7 335 1283.84 335C1273.99 335 1266 342.988 1266 352.842C1266 362.697 1273.99 370.685 1283.84 370.685Z" fill="#9DC6FF"/>
</g>
<defs>
<linearGradient id="paint0_linear_109_1074" x1="769.5" y1="421.914" x2="769.5" y2="1501.39" gradientUnits="userSpaceOnUse">
<stop stop-color="#006AFF"/>
<stop offset="1" stop-color="#CACACA" stop-opacity="0"/>
</linearGradient>
<linearGradient id="paint1_linear_109_1074" x1="1167.34" y1="-813.272" x2="1167.34" y2="1565.73" gradientUnits="userSpaceOnUse">
<stop stop-color="#006AFF"/>
<stop offset="1" stop-color="white" stop-opacity="0"/>
</linearGradient>
<linearGradient id="paint2_linear_109_1074" x1="639.5" y1="-498.055" x2="639.5" y2="682.524" gradientUnits="userSpaceOnUse">
<stop stop-color="#006AFF"/>
<stop offset="1" stop-color="#CACACA" stop-opacity="0"/>
</linearGradient>
<linearGradient id="paint3_linear_109_1074" x1="975.569" y1="376" x2="975.569" y2="1327.6" gradientUnits="userSpaceOnUse">
<stop stop-color="#CACACA"/>
<stop offset="1" stop-color="#CACACA" stop-opacity="0"/>
</linearGradient>
<linearGradient id="paint4_linear_109_1074" x1="-7.29065" y1="-813.272" x2="-7.29065" y2="325.675" gradientUnits="userSpaceOnUse">
<stop stop-color="#CACACA"/>
<stop offset="1" stop-color="#CACACA" stop-opacity="0"/>
</linearGradient>
<linearGradient id="paint5_linear_109_1074" x1="1614.89" y1="-260.154" x2="1614.89" y2="281.068" gradientUnits="userSpaceOnUse">
<stop stop-color="#CACACA"/>
<stop offset="1" stop-color="#CACACA" stop-opacity="0"/>
</linearGradient>
<linearGradient id="paint6_linear_109_1074" x1="107" y1="-67.0006" x2="236.5" y2="1395.5" gradientUnits="userSpaceOnUse">
<stop stop-color="#006AFF"/>
<stop offset="0.798618" stop-color="white" stop-opacity="0"/>
</linearGradient>
<linearGradient id="paint7_linear_109_1074" x1="-74.2" y1="59.5001" x2="-74.2" y2="904" gradientUnits="userSpaceOnUse">
<stop stop-color="#006AFF"/>
<stop offset="0.727683" stop-color="white" stop-opacity="0"/>
</linearGradient>
<linearGradient id="paint8_linear_109_1074" x1="1259.53" y1="-923.272" x2="1259.53" y2="162.147" gradientUnits="userSpaceOnUse">
<stop stop-color="#CACACA"/>
<stop offset="1" stop-color="#CACACA" stop-opacity="0"/>
</linearGradient>
<linearGradient id="paint9_linear_109_1074" x1="786.701" y1="-813.272" x2="786.701" y2="394.071" gradientUnits="userSpaceOnUse">
<stop stop-color="#CACACA"/>
<stop offset="0.831801" stop-color="#CACACA" stop-opacity="0"/>
</linearGradient>
</defs>
</svg>
