<svg width="110" height="55" viewBox="0 0 110 55" fill="none" xmlns="http://www.w3.org/2000/svg">
<g clip-path="url(#clip0_129_2375)">
<path d="M18.27 54.9082H0.0483398V36.6865C10.1099 36.6865 18.27 44.8467 18.27 54.9082Z" fill="white"/>
<path d="M19.4744 54.9082H37.6961V36.6865C27.6345 36.6865 19.4744 44.8467 19.4744 54.9082Z" fill="white"/>
<path d="M15.4417 9.73608V26.6113C15.4417 27.9916 15.7462 29.0878 16.3484 29.893C16.9574 30.6981 17.9317 31.0974 19.285 31.0974C20.6382 31.0974 21.6397 30.6981 22.2892 29.893C22.9388 29.0878 23.2636 27.9984 23.2636 26.6113V9.73608H32.6146V26.6113C32.6146 29.4599 32.0192 31.889 30.8418 33.9054C29.6577 35.9217 28.0338 37.4374 25.9769 38.4523C23.9199 39.4673 21.6194 39.9748 19.082 39.9748C16.5446 39.9748 14.2982 39.4673 12.336 38.4523C10.3737 37.4374 8.84454 35.9285 7.74839 33.9257C6.65225 31.9228 6.09741 29.487 6.09741 26.6045V9.73608H15.4417Z" fill="white"/>
<path d="M43.3799 24.8385C43.7724 27.7683 46.0526 28.7765 49.9432 28.7765C54.1045 28.7765 56.3307 27.6398 56.3307 24.7911C56.3307 20.6772 39.6111 24.6152 39.6111 16.4753C39.6111 10.1759 47.2706 9.68872 49.9838 9.68872C53.3941 9.68872 59.3958 10.7375 60.0521 15.5957L56.1547 16.1641C55.7149 13.7553 53.7053 13.0583 49.8959 13.0583C46.0864 13.0583 43.9009 13.85 43.9009 16.6039C43.9009 20.8058 60.6205 16.8678 60.6205 24.8723C60.6205 31.571 52.6092 32.1394 49.8553 32.1394C47.3179 32.1394 39.7464 31.3951 39.2186 25.576L43.3799 24.8317V24.8385Z" fill="white"/>
<path d="M67.407 0.635498H63.1172V31.8824H67.407V0.635498Z" fill="white"/>
<path d="M69.9038 20.9412C69.9038 13.3697 75.5063 9.69557 81.9817 9.73617C88.5044 9.78354 94.1069 13.3697 94.1069 20.9412C94.1069 28.5127 88.5044 32.1462 81.9817 32.1462C75.459 32.1462 69.9038 28.5127 69.9038 20.9412ZM74.1937 20.9412C74.1937 26.0633 77.6512 28.4721 81.9817 28.4721C86.3121 28.4721 89.8171 25.9753 89.8171 20.9412C89.8171 15.9071 86.143 13.4171 81.9817 13.3697C77.9557 13.3223 74.1937 15.995 74.1937 20.9412Z" fill="white"/>
<path d="M94.4115 13.8501V9.82415H95.2438C97.2601 9.82415 99.7975 6.19063 99.7975 3.17285L104.128 3.12549C104.04 5.5343 102.944 7.89574 100.934 9.25577C100.19 9.73618 98.9652 9.86474 98.0924 10.0407V10.1286C98.9652 9.95271 100.149 9.82415 101.022 9.82415H108.77V13.8501H103.214V25.4949C103.214 27.4233 104.263 27.8564 105.623 27.8564H109.825V31.8824H105.84C100.109 31.8824 98.9246 29.7374 98.9246 24.6627V13.8501H94.4183H94.4115Z" fill="white"/>
<path d="M40.3959 36.8353V36.3616H40.4906C40.7274 36.3616 41.0251 35.9353 41.0251 35.5835H41.5326C41.5258 35.8609 41.3905 36.1383 41.1537 36.3007C41.0657 36.3549 40.9236 36.3752 40.8222 36.3955C40.9236 36.3819 41.0657 36.3684 41.1672 36.3684H42.0807V36.842H41.4311V38.2088C41.4311 38.4321 41.5529 38.4862 41.7153 38.4862H42.2092V38.9599H41.7424C41.0657 38.9599 40.9304 38.7095 40.9304 38.1141V36.842H40.4026L40.3959 36.8353Z" fill="white"/>
<path d="M43.3461 37.6811V36.3684H43.8468V37.6811C43.8468 38.2291 44.0565 38.4727 44.476 38.4727C44.6993 38.4727 45.1933 38.29 45.1933 37.3292V36.3684H45.694V38.9396H45.1933V38.4457C45.1933 38.3374 45.2136 38.2021 45.2339 38.1006H45.2271C45.1324 38.581 44.8482 38.9802 44.3001 38.9802C43.5558 38.9802 43.3461 38.3577 43.3461 37.6811Z" fill="white"/>
<path d="M47.054 36.8353V36.3616H47.1487C47.3855 36.3616 47.6832 35.9353 47.6832 35.5835H48.1907C48.1839 35.8609 48.0486 36.1383 47.8118 36.3007C47.7238 36.3549 47.5817 36.3752 47.4802 36.3955C47.5817 36.3819 47.7238 36.3684 47.8253 36.3684H48.7388V36.842H48.0892V38.2088C48.0892 38.4321 48.211 38.4862 48.3734 38.4862H48.8673V38.9599H48.4005C47.7238 38.9599 47.5885 38.7095 47.5885 38.1141V36.842H47.0607L47.054 36.8353Z" fill="white"/>
<path d="M49.8552 37.6675C49.8552 36.7811 50.5116 36.348 51.2762 36.3548C52.0407 36.3548 52.6971 36.7811 52.6971 37.6675C52.6971 38.5539 52.0407 38.9869 51.2762 38.9869C50.5116 38.9869 49.8552 38.5606 49.8552 37.6675ZM50.3627 37.6675C50.3627 38.2697 50.7687 38.5539 51.2762 38.5539C51.7836 38.5539 52.1964 38.2629 52.1964 37.6675C52.1964 37.072 51.7633 36.7811 51.2762 36.7811C50.8025 36.7811 50.3627 37.0923 50.3627 37.6675Z" fill="white"/>
<path d="M54.6255 36.3818H55.6607V36.8555H54.7946C54.5037 36.8555 54.4496 36.8893 54.4496 37.2479V38.953H53.9489V37.072C53.9489 36.6119 54.1654 36.3818 54.6322 36.3818" fill="white"/>
<path d="M58.8138 36.8353V36.3616H59.2942C59.4024 36.3616 59.5378 36.3819 59.6393 36.4022V36.3887C59.5378 36.3684 59.3889 36.3481 59.3145 36.2804C59.2333 36.2128 59.1521 36.1045 59.1521 35.9692C59.1521 35.6444 59.4227 35.3467 60.4377 35.3467V35.7797C59.937 35.7797 59.646 35.8812 59.646 36.0639C59.646 36.2466 59.8829 36.3549 60.0723 36.3549H60.4377V36.8285H59.8558V38.9464H59.3551V36.8285H58.807L58.8138 36.8353Z" fill="white"/>
<path d="M61.4188 37.6675C61.4188 36.7811 62.0752 36.348 62.8398 36.3548C63.6043 36.3548 64.2607 36.7811 64.2607 37.6675C64.2607 38.5539 63.6043 38.9869 62.8398 38.9869C62.0752 38.9869 61.4188 38.5606 61.4188 37.6675ZM61.9195 37.6675C61.9195 38.2697 62.3255 38.5539 62.833 38.5539C63.3405 38.5539 63.7532 38.2629 63.7532 37.6675C63.7532 37.072 63.3202 36.7811 62.833 36.7811C62.3593 36.7811 61.9195 37.0923 61.9195 37.6675Z" fill="white"/>
<path d="M66.1891 36.3818H67.2243V36.8555H66.3582C66.0673 36.8555 66.0132 36.8893 66.0132 37.2479V38.953H65.5125V37.072C65.5125 36.6119 65.729 36.3818 66.1959 36.3818" fill="white"/>
<path d="M70.391 36.3818H70.9323L71.5954 38.0666C71.6428 38.1749 71.6631 38.3305 71.6631 38.4388H71.6766C71.6766 38.3238 71.7037 38.1681 71.751 38.0666L72.4209 36.3818H72.9622L71.7849 39.3184C71.5819 39.8936 71.1556 40.0356 70.8714 40.0356H70.4113V39.6297H70.6752C70.8037 39.6297 71.1556 39.5552 71.2571 39.2711L71.3924 38.8583L70.3978 36.3818H70.391Z" fill="white"/>
<path d="M73.8824 37.6675C73.8824 36.7811 74.5388 36.348 75.3034 36.3548C76.068 36.3548 76.7243 36.7811 76.7243 37.6675C76.7243 38.5539 76.068 38.9869 75.3034 38.9869C74.5388 38.9869 73.8824 38.5606 73.8824 37.6675ZM74.3899 37.6675C74.3899 38.2697 74.7959 38.5539 75.3034 38.5539C75.8108 38.5539 76.2236 38.2629 76.2236 37.6675C76.2236 37.072 75.7905 36.7811 75.3034 36.7811C74.8297 36.7811 74.3899 37.0923 74.3899 37.6675Z" fill="white"/>
<path d="M77.9694 37.6811V36.3684H78.4701V37.6811C78.4701 38.2291 78.6798 38.4727 79.0993 38.4727C79.3226 38.4727 79.8166 38.29 79.8166 37.3292V36.3684H80.3173V38.9396H79.8166V38.4457C79.8166 38.3374 79.8369 38.2021 79.8572 38.1006H79.8504C79.7557 38.581 79.4715 38.9802 78.9234 38.9802C78.1791 38.9802 77.9694 38.3577 77.9694 37.6811Z" fill="white"/>
</g>
<defs>
<clipPath id="clip0_129_2375">
<rect width="109.77" height="54.2727" fill="white" transform="translate(0.0483398 0.635498)"/>
</clipPath>
</defs>
</svg>
