<svg width="110" height="55" viewBox="0 0 110 55" fill="none" xmlns="http://www.w3.org/2000/svg">
<g clip-path="url(#clip0_1290_2257)">
<path d="M18.27 54.7413H0.0483398V36.5196C10.1099 36.5196 18.27 44.6798 18.27 54.7413Z" fill="#1C75BC"/>
<path d="M19.4744 54.7413H37.6961V36.5196C27.6345 36.5196 19.4744 44.6798 19.4744 54.7413Z" fill="#1C75BC"/>
<path d="M15.4417 9.56927V26.4445C15.4417 27.8248 15.7462 28.9209 16.3484 29.7261C16.9574 30.5313 17.9317 30.9305 19.285 30.9305C20.6382 30.9305 21.6397 30.5313 22.2892 29.7261C22.9388 28.9209 23.2636 27.8316 23.2636 26.4445V9.56927H32.6146V26.4445C32.6146 29.2931 32.0192 31.7222 30.8418 33.7386C29.6577 35.7549 28.0338 37.2706 25.9769 38.2855C23.9199 39.3005 21.6194 39.808 19.082 39.808C16.5446 39.808 14.2982 39.3005 12.336 38.2855C10.3737 37.2706 8.84454 35.7617 7.74839 33.7589C6.65225 31.756 6.09741 29.3202 6.09741 26.4377V9.56927H15.4417Z" fill="#333132"/>
<path d="M43.3798 24.6717C43.7722 27.6015 46.0525 28.6097 49.9431 28.6097C54.1044 28.6097 56.3305 27.473 56.3305 24.6243C56.3305 20.5104 39.611 24.4484 39.611 16.3085C39.611 10.0091 47.2704 9.52191 49.9837 9.52191C53.3939 9.52191 59.3957 10.5707 60.052 15.4289L56.1546 15.9973C55.7148 13.5885 53.7052 12.8915 49.8958 12.8915C46.0863 12.8915 43.9008 13.6832 43.9008 16.4371C43.9008 20.639 60.6204 16.701 60.6204 24.7055C60.6204 31.4042 52.6091 31.9726 49.8552 31.9726C47.3178 31.9726 39.7463 31.2283 39.2185 25.4092L43.3798 24.6649V24.6717Z" fill="#333132"/>
<path d="M67.407 0.468628H63.1172V31.7155H67.407V0.468628Z" fill="#333132"/>
<path d="M69.9038 20.7743C69.9038 13.2028 75.5063 9.5287 81.9817 9.5693C88.5044 9.61667 94.1069 13.2028 94.1069 20.7743C94.1069 28.3458 88.5044 31.9794 81.9817 31.9794C75.459 31.9794 69.9038 28.3458 69.9038 20.7743ZM74.1937 20.7743C74.1937 25.8964 77.6512 28.3052 81.9817 28.3052C86.3121 28.3052 89.8171 25.8085 89.8171 20.7743C89.8171 15.7402 86.143 13.2502 81.9817 13.2028C77.9557 13.1555 74.1937 15.8281 74.1937 20.7743Z" fill="#333132"/>
<path d="M94.4114 13.6832V9.65728H95.2436C97.26 9.65728 99.7974 6.02376 99.7974 3.00598L104.128 2.95862C104.04 5.36743 102.944 7.72887 100.934 9.0889C100.19 9.56931 98.9651 9.69787 98.0922 9.8738V9.96176C98.9651 9.78584 100.149 9.65728 101.022 9.65728H108.769V13.6832H103.214V25.3281C103.214 27.2565 104.263 27.6895 105.623 27.6895H109.825V31.7155H105.84C100.109 31.7155 98.9245 29.5706 98.9245 24.4958V13.6832H94.4181H94.4114Z" fill="#333132"/>
<path d="M40.396 36.6684V36.1948H40.4907C40.7275 36.1948 41.0253 35.7685 41.0253 35.4166H41.5327C41.526 35.694 41.3906 35.9715 41.1538 36.1339C41.0659 36.188 40.9238 36.2083 40.8223 36.2286C40.9238 36.215 41.0659 36.2015 41.1674 36.2015H42.0808V36.6752H41.4312V38.042C41.4312 38.2652 41.553 38.3194 41.7154 38.3194H42.2094V38.793H41.7425C41.0659 38.793 40.9305 38.5427 40.9305 37.9472V36.6752H40.4028L40.396 36.6684Z" fill="#333132"/>
<path d="M43.3459 37.5142V36.2015H43.8467V37.5142C43.8467 38.0623 44.0564 38.3059 44.4759 38.3059C44.6992 38.3059 45.1932 38.1232 45.1932 37.1624V36.2015H45.6939V38.7727H45.1932V38.2788C45.1932 38.1705 45.2134 38.0352 45.2337 37.9337H45.227C45.1323 38.4141 44.8481 38.8133 44.3 38.8133C43.5557 38.8133 43.3459 38.1908 43.3459 37.5142Z" fill="#333132"/>
<path d="M47.054 36.6684V36.1948H47.1487C47.3855 36.1948 47.6832 35.7685 47.6832 35.4166H48.1907C48.1839 35.694 48.0486 35.9715 47.8118 36.1339C47.7238 36.188 47.5817 36.2083 47.4802 36.2286C47.5817 36.215 47.7238 36.2015 47.8253 36.2015H48.7388V36.6752H48.0892V38.042C48.0892 38.2652 48.211 38.3194 48.3734 38.3194H48.8673V38.793H48.4005C47.7238 38.793 47.5885 38.5427 47.5885 37.9472V36.6752H47.0607L47.054 36.6684Z" fill="#333132"/>
<path d="M49.8552 37.5007C49.8552 36.6143 50.5116 36.1812 51.2762 36.188C52.0407 36.188 52.6971 36.6143 52.6971 37.5007C52.6971 38.3871 52.0407 38.8201 51.2762 38.8201C50.5116 38.8201 49.8552 38.3938 49.8552 37.5007ZM50.3627 37.5007C50.3627 38.1029 50.7687 38.3871 51.2762 38.3871C51.7836 38.3871 52.1964 38.0961 52.1964 37.5007C52.1964 36.9052 51.7633 36.6143 51.2762 36.6143C50.8025 36.6143 50.3627 36.9255 50.3627 37.5007Z" fill="#333132"/>
<path d="M54.6256 36.2151H55.6609V36.6887H54.7948C54.5038 36.6887 54.4497 36.7226 54.4497 37.0812V38.7863H53.949V36.9053C53.949 36.4451 54.1655 36.2151 54.6324 36.2151" fill="#333132"/>
<path d="M58.8139 36.6685V36.1948H59.2943C59.4026 36.1948 59.5379 36.2151 59.6394 36.2354V36.2219C59.5379 36.2016 59.389 36.1813 59.3146 36.1136C59.2334 36.046 59.1522 35.9377 59.1522 35.8024C59.1522 35.4776 59.4229 35.1799 60.4378 35.1799V35.6129C59.9371 35.6129 59.6462 35.7144 59.6462 35.8971C59.6462 36.0798 59.883 36.1881 60.0724 36.1881H60.4378V36.6617H59.8559V38.7796H59.3552V36.6617H58.8071L58.8139 36.6685Z" fill="#333132"/>
<path d="M61.4189 37.5007C61.4189 36.6143 62.0753 36.1812 62.8399 36.188C63.6045 36.188 64.2608 36.6143 64.2608 37.5007C64.2608 38.3871 63.6045 38.8201 62.8399 38.8201C62.0753 38.8201 61.4189 38.3938 61.4189 37.5007ZM61.9197 37.5007C61.9197 38.1029 62.3256 38.3871 62.8331 38.3871C63.3406 38.3871 63.7533 38.0961 63.7533 37.5007C63.7533 36.9052 63.3203 36.6143 62.8331 36.6143C62.3595 36.6143 61.9197 36.9255 61.9197 37.5007Z" fill="#333132"/>
<path d="M66.1891 36.2151H67.2243V36.6887H66.3582C66.0673 36.6887 66.0132 36.7226 66.0132 37.0812V38.7863H65.5125V36.9053C65.5125 36.4451 65.729 36.2151 66.1959 36.2151" fill="#333132"/>
<path d="M70.3909 36.2151H70.9322L71.5953 37.8999C71.6426 38.0082 71.6629 38.1638 71.6629 38.272H71.6765C71.6765 38.157 71.7035 38.0014 71.7509 37.8999L72.4208 36.2151H72.9621L71.7847 39.1517C71.5817 39.7268 71.1555 39.8689 70.8713 39.8689H70.4112V39.4629H70.6751C70.8036 39.4629 71.1555 39.3885 71.257 39.1043L71.3923 38.6916L70.3976 36.2151H70.3909Z" fill="#333132"/>
<path d="M73.8823 37.5007C73.8823 36.6143 74.5387 36.1812 75.3033 36.188C76.0678 36.188 76.7242 36.6143 76.7242 37.5007C76.7242 38.3871 76.0678 38.8201 75.3033 38.8201C74.5387 38.8201 73.8823 38.3938 73.8823 37.5007ZM74.3898 37.5007C74.3898 38.1029 74.7958 38.3871 75.3033 38.3871C75.8107 38.3871 76.2235 38.0961 76.2235 37.5007C76.2235 36.9052 75.7904 36.6143 75.3033 36.6143C74.8296 36.6143 74.3898 36.9255 74.3898 37.5007Z" fill="#333132"/>
<path d="M77.9692 37.5142V36.2015H78.4699V37.5142C78.4699 38.0623 78.6797 38.3059 79.0992 38.3059C79.3225 38.3059 79.8164 38.1232 79.8164 37.1624V36.2015H80.3171V38.7727H79.8164V38.2788C79.8164 38.1705 79.8367 38.0352 79.857 37.9337H79.8503C79.7555 38.4141 79.4714 38.8133 78.9233 38.8133C78.179 38.8133 77.9692 38.1908 77.9692 37.5142Z" fill="#333132"/>
</g>
<defs>
<clipPath id="clip0_1290_2257">
<rect width="109.77" height="54.2727" fill="white" transform="translate(0.0483398 0.468628)"/>
</clipPath>
</defs>
</svg>
