<svg width="133" height="66" viewBox="0 0 133 66" fill="none" xmlns="http://www.w3.org/2000/svg">
<g clip-path="url(#clip0_1042_7054)">
<path d="M22.5963 65.6803H0.668457V43.7524C12.7764 43.7524 22.5963 53.5723 22.5963 65.6803Z" fill="#1C75BC"/>
<path d="M24.0454 65.6803H45.9732V43.7524C33.8653 43.7524 24.0454 53.5723 24.0454 65.6803Z" fill="#1C75BC"/>
<path d="M19.1926 11.3207V31.6282C19.1926 33.2893 19.559 34.6084 20.2837 35.5773C21.0165 36.5463 22.189 37.0267 23.8175 37.0267C25.446 37.0267 26.6511 36.5463 27.4328 35.5773C28.2145 34.6084 28.6053 33.2974 28.6053 31.6282V11.3207H39.8583V31.6282C39.8583 35.0562 39.1418 37.9794 37.725 40.4058C36.3 42.8323 34.3458 44.6562 31.8705 45.8776C29.3952 47.099 26.6267 47.7097 23.5733 47.7097C20.5198 47.7097 17.8165 47.099 15.4552 45.8776C13.0938 44.6562 11.2536 42.8404 9.93453 40.4303C8.61544 38.0201 7.94775 35.0888 7.94775 31.62V11.3207H19.1926Z" fill="#333132"/>
<path d="M52.8133 29.4948C53.2856 33.0205 56.0296 34.2338 60.7116 34.2338C65.7192 34.2338 68.3981 32.8658 68.3981 29.4378C68.3981 24.4872 48.2779 29.2261 48.2779 19.4307C48.2779 11.85 57.4953 11.2637 60.7604 11.2637C64.8642 11.2637 72.0867 12.5258 72.8765 18.3722L68.1864 19.0561C67.6571 16.1574 65.2388 15.3187 60.6546 15.3187C56.0703 15.3187 53.4403 16.2714 53.4403 19.5854C53.4403 24.6419 73.5605 19.9029 73.5605 29.5355C73.5605 37.5966 63.9197 38.2806 60.6057 38.2806C57.5523 38.2806 48.4408 37.3849 47.8057 30.3824L52.8133 29.4867V29.4948Z" fill="#333132"/>
<path d="M81.7273 0.36908H76.5649V37.9712H81.7273V0.36908Z" fill="#333132"/>
<path d="M84.7319 24.8048C84.7319 15.6933 91.4739 11.2719 99.2663 11.3208C107.116 11.3778 113.858 15.6933 113.858 24.8048C113.858 33.9163 107.116 38.2888 99.2663 38.2888C91.4169 38.2888 84.7319 33.9163 84.7319 24.8048ZM89.8943 24.8048C89.8943 30.9687 94.0551 33.8674 99.2663 33.8674C104.478 33.8674 108.695 30.8628 108.695 24.8048C108.695 18.7468 104.274 15.7503 99.2663 15.6933C94.4215 15.6363 89.8943 18.8526 89.8943 24.8048Z" fill="#333132"/>
<path d="M114.224 16.2714V11.4266H115.226C117.652 11.4266 120.706 7.0541 120.706 3.42254L125.917 3.36554C125.811 6.26428 124.492 9.10602 122.074 10.7427C121.178 11.3208 119.704 11.4755 118.654 11.6872V11.793C119.704 11.5813 121.129 11.4266 122.179 11.4266H131.503V16.2714H124.818V30.2847C124.818 32.6053 126.08 33.1265 127.716 33.1265H132.773V37.9713H127.977C121.08 37.9713 119.655 35.3901 119.655 29.2832V16.2714H114.232H114.224Z" fill="#333132"/>
<path d="M49.2222 43.9315V43.3616H49.3362C49.6212 43.3616 49.9794 42.8486 49.9794 42.4252H50.5901C50.582 42.759 50.4191 43.0929 50.1341 43.2883C50.0283 43.3534 49.8573 43.3778 49.7351 43.4023C49.8573 43.386 50.0283 43.3697 50.1504 43.3697H51.2497V43.9397H50.468V45.5845C50.468 45.8532 50.6145 45.9183 50.81 45.9183H51.4044V46.4883H50.8425C50.0283 46.4883 49.8654 46.187 49.8654 45.4705V43.9397H49.2303L49.2222 43.9315Z" fill="#333132"/>
<path d="M52.7725 44.9494V43.3698H53.375V44.9494C53.375 45.6089 53.6274 45.9021 54.1323 45.9021C54.401 45.9021 54.9954 45.6822 54.9954 44.526V43.3698H55.5979V46.4639H54.9954V45.8695C54.9954 45.7392 55.0198 45.5764 55.0442 45.4542H55.0361C54.9221 46.0324 54.5801 46.5128 53.9206 46.5128C53.0249 46.5128 52.7725 45.7637 52.7725 44.9494Z" fill="#333132"/>
<path d="M57.2344 43.9315V43.3616H57.3484C57.6334 43.3616 57.9916 42.8486 57.9916 42.4252H58.6023C58.5942 42.759 58.4313 43.0929 58.1463 43.2883C58.0405 43.3534 57.8695 43.3778 57.7474 43.4023C57.8695 43.386 58.0405 43.3697 58.1626 43.3697H59.2619V43.9397H58.4802V45.5845C58.4802 45.8532 58.6267 45.9183 58.8222 45.9183H59.4166V46.4883H58.8547C58.0405 46.4883 57.8776 46.187 57.8776 45.4705V43.9397H57.2425L57.2344 43.9315Z" fill="#333132"/>
<path d="M60.6055 44.9331C60.6055 43.8664 61.3953 43.3453 62.3154 43.3534C63.2355 43.3534 64.0253 43.8664 64.0253 44.9331C64.0253 45.9997 63.2355 46.5209 62.3154 46.5209C61.3953 46.5209 60.6055 46.0079 60.6055 44.9331ZM61.2162 44.9331C61.2162 45.6578 61.7047 45.9997 62.3154 45.9997C62.9261 45.9997 63.4228 45.6496 63.4228 44.9331C63.4228 44.2165 62.9017 43.8664 62.3154 43.8664C61.7454 43.8664 61.2162 44.241 61.2162 44.9331Z" fill="#333132"/>
<path d="M66.346 43.386H67.5918V43.956H66.5496C66.1994 43.956 66.1343 43.9967 66.1343 44.4282V46.4801H65.5317V44.2165C65.5317 43.6628 65.7923 43.386 66.3541 43.386" fill="#333132"/>
<path d="M71.3861 43.9316V43.3616H71.9642C72.0945 43.3616 72.2573 43.386 72.3795 43.4104V43.3941C72.2573 43.3697 72.0782 43.3453 71.9886 43.2639C71.8909 43.1824 71.7932 43.0522 71.7932 42.8893C71.7932 42.4985 72.1189 42.1402 73.3403 42.1402V42.6613C72.7377 42.6613 72.3876 42.7835 72.3876 43.0033C72.3876 43.2232 72.6726 43.3534 72.9006 43.3534H73.3403V43.9234H72.64V46.472H72.0375V43.9234H71.3779L71.3861 43.9316Z" fill="#333132"/>
<path d="M74.521 44.9331C74.521 43.8664 75.3108 43.3453 76.2309 43.3534C77.151 43.3534 77.9409 43.8664 77.9409 44.9331C77.9409 45.9997 77.151 46.5209 76.2309 46.5209C75.3108 46.5209 74.521 46.0079 74.521 44.9331ZM75.1235 44.9331C75.1235 45.6578 75.6121 45.9997 76.2228 45.9997C76.8335 45.9997 77.3302 45.6496 77.3302 44.9331C77.3302 44.2165 76.809 43.8664 76.2228 43.8664C75.6528 43.8664 75.1235 44.241 75.1235 44.9331Z" fill="#333132"/>
<path d="M80.2615 43.386H81.5073V43.956H80.4651C80.115 43.956 80.0498 43.9967 80.0498 44.4282V46.4801H79.4473V44.2165C79.4473 43.6628 79.7078 43.386 80.2697 43.386" fill="#333132"/>
<path d="M85.3179 43.386H85.9693L86.7672 45.4135C86.8242 45.5438 86.8487 45.731 86.8487 45.8613H86.865C86.865 45.7229 86.8975 45.5356 86.9545 45.4135L87.7606 43.386H88.412L86.9952 46.9198C86.751 47.612 86.238 47.7829 85.896 47.7829H85.3423V47.2944H85.6599C85.8146 47.2944 86.238 47.2048 86.3601 46.8628L86.523 46.3661L85.326 43.386H85.3179Z" fill="#333132"/>
<path d="M89.5195 44.9331C89.5195 43.8664 90.3094 43.3453 91.2295 43.3534C92.1496 43.3534 92.9394 43.8664 92.9394 44.9331C92.9394 45.9997 92.1496 46.5209 91.2295 46.5209C90.3094 46.5209 89.5195 46.0079 89.5195 44.9331ZM90.1302 44.9331C90.1302 45.6578 90.6188 45.9997 91.2295 45.9997C91.8401 45.9997 92.3368 45.6496 92.3368 44.9331C92.3368 44.2165 91.8157 43.8664 91.2295 43.8664C90.6595 43.8664 90.1302 44.241 90.1302 44.9331Z" fill="#333132"/>
<path d="M94.4375 44.9494V43.3698H95.04V44.9494C95.04 45.6089 95.2925 45.9021 95.7973 45.9021C96.066 45.9021 96.6604 45.6822 96.6604 44.526V43.3698H97.2629V46.4639H96.6604V45.8695C96.6604 45.7392 96.6848 45.5764 96.7093 45.4542H96.7011C96.5871 46.0324 96.2451 46.5128 95.5856 46.5128C94.6899 46.5128 94.4375 45.7637 94.4375 44.9494Z" fill="#333132"/>
</g>
<defs>
<clipPath id="clip0_1042_7054">
<rect width="132.096" height="65.3112" fill="white" transform="translate(0.668457 0.36908)"/>
</clipPath>
</defs>
</svg>
