<svg width="74" height="86" viewBox="0 0 74 86" fill="none" xmlns="http://www.w3.org/2000/svg">
<path d="M45.7392 85.1165C44.8048 85.0415 44.5131 84.4583 44.3846 83.6331C44.0164 81.2767 43.6309 78.9204 43.1793 76.581C41.467 67.7148 35.2846 61.9007 26.1812 60.5298C24.0694 60.2127 21.9646 59.8376 19.8494 59.517C19.0262 59.3943 18.3628 59.1078 18.3177 58.1973C18.269 57.205 18.9081 56.8367 19.832 56.6969C22.232 56.332 24.6321 55.9671 27.0147 55.5136C36.0835 53.7881 41.9498 47.7761 43.3565 38.8212C43.683 36.7479 44.0581 34.678 44.3846 32.6047C44.5235 31.7181 44.8847 31.0565 45.9059 31.1042C46.8124 31.1486 47.1319 31.7487 47.257 32.5876C47.5557 34.6098 47.9586 36.6149 48.2607 38.6371C49.6778 48.0967 56.1312 54.3814 65.8042 55.7284C67.8049 56.008 69.795 56.39 71.7922 56.7003C72.6883 56.8401 73.3656 57.1675 73.3204 58.1905C73.2787 59.1078 72.6501 59.3908 71.8165 59.517C69.4755 59.8717 67.131 60.2331 64.8039 60.6628C55.5824 62.361 49.6362 68.4617 48.2712 77.5631C47.969 79.5819 47.5835 81.5905 47.2604 83.6092C47.118 84.489 46.7777 85.1267 45.7426 85.1165H45.7392Z" fill="white"/>
<path d="M35.2531 30.7664C35.2149 31.428 34.7009 31.4791 34.166 31.5644C32.3425 31.8576 30.5225 32.1645 28.7025 32.4953C24.1039 33.3308 20.6689 36.6249 19.7589 41.1194C19.3768 43.0086 19.0851 44.9148 18.7725 46.8176C18.703 47.2371 18.6092 47.6565 18.1403 47.7043C17.5568 47.7588 17.3901 47.3121 17.3033 46.8279C16.9872 44.983 16.6746 43.1382 16.3273 41.3001C15.4763 36.7852 12.1316 33.4297 7.53989 32.526C5.6157 32.1475 3.67414 31.861 1.73605 31.5575C1.30537 31.4893 0.888576 31.3973 0.843423 30.9335C0.787851 30.3572 1.2359 30.2037 1.73605 30.1219C3.55952 29.8218 5.37952 29.5149 7.19604 29.1909C12.0239 28.3316 15.3825 25.1023 16.3307 20.3691C16.6885 18.589 16.9594 16.7953 17.2651 15.005C17.3415 14.5617 17.338 14.0161 17.9354 13.9649C18.6544 13.907 18.696 14.4901 18.7829 15.005C19.092 16.7919 19.4046 18.5822 19.738 20.3657C20.5716 24.867 23.9476 28.2532 28.5289 29.1364C30.3975 29.4978 32.2835 29.7775 34.1625 30.081C34.6245 30.156 35.0968 30.1765 35.2497 30.7664H35.2531Z" fill="white"/>
<path d="M38.8237 0.941895C39.9317 3.47217 39.4211 6.12862 41.3904 7.97689C43.3042 9.77741 45.8918 9.40571 48.5384 10.3196C45.9404 11.404 43.2382 10.9027 41.3522 12.809C39.4767 14.7016 39.8448 17.2353 38.9765 19.7655C37.7609 17.3887 38.3513 14.7186 36.4515 12.8465C34.5273 10.9505 31.8598 11.4177 29.3347 10.381C31.8667 9.35115 34.5655 9.82856 36.4549 7.88823C38.2749 6.01609 37.879 3.47558 38.8237 0.945305V0.941895Z" fill="white"/>
</svg>
